<svg width="93" height="99" viewBox="0 0 93 99" fill="none" xmlns="http://www.w3.org/2000/svg">
<path d="M12.8385 25.3248C15.255 23.5347 18.8978 23.878 21.0676 25.7771L18.5791 21.9435C16.5764 18.9164 17.2937 15.6414 20.1524 13.5161C23.0111 11.3991 31.1117 17.0909 31.1117 17.0909C29.091 14.0338 29.4689 10.1594 32.3534 8.01504C35.2378 5.8789 39.2174 6.61729 41.238 9.67981L68.0256 49.7869L64.6116 84.867L36.1196 73.8539L11.2677 34.8012C9.2291 31.7251 9.93349 27.4828 12.8385 25.3248Z" fill="#EF9645"/>
<path d="M7.27006 47.6369C7.27006 47.6369 4.35992 43.1412 8.6043 40.0596C12.8435 36.978 15.7511 41.471 15.7511 41.471L29.2503 62.3365C29.7156 61.5136 30.2246 60.7017 30.7928 59.9006L12.0569 30.9456C12.0569 30.9456 9.14931 26.4526 13.3911 23.371C17.6303 20.2894 20.5379 24.7824 20.5379 24.7824L38.1607 52.0209C38.8162 51.4542 39.4872 50.8847 40.1787 50.3261L19.7487 18.7446C19.7487 18.7446 16.8411 14.2516 21.0829 11.17C25.3221 8.08839 28.2297 12.5814 28.2297 12.5814L48.6598 44.1575C49.4105 43.6698 50.1534 43.2475 50.8989 42.8006L31.8031 13.287C31.8031 13.287 28.8955 8.79408 33.1348 5.71248C37.374 2.63088 40.2816 7.12386 40.2816 7.12386L60.4726 38.3322L63.5421 43.0785C50.8218 52.3261 49.611 69.723 56.8786 80.9568C58.3311 83.2047 60.452 81.6653 60.452 81.6653C51.7293 68.1809 54.3927 53.029 67.1155 43.7842L63.3647 23.8887C63.3647 23.8887 61.9636 18.6465 66.9073 17.1588C71.8535 15.6739 73.2571 20.9161 73.2571 20.9161L77.5889 34.5503C79.3062 39.9561 81.134 45.3427 83.5531 50.4379C90.3837 64.8241 86.3039 82.7034 73.4242 92.068C59.3748 102.277 40.1685 98.4819 30.5331 83.5943L7.27006 47.6369Z" fill="#FFDC5D"/>
<path d="M31.1915 87.7056C20.9083 87.7056 10.5172 76.6925 10.5172 65.7938C10.5172 64.2871 9.47602 63.0692 8.05437 63.0692C6.63273 63.0692 5.37561 64.2871 5.37561 65.7938C5.37561 82.1418 15.7667 93.1549 31.1915 93.1549C32.6131 93.1549 33.7623 91.8225 33.7623 90.3158C33.7623 88.8091 32.6131 87.7056 31.1915 87.7056Z" fill="#5DADEC"/>
<path d="M18.3375 93.0406C10.6251 93.0406 5.48351 87.5912 5.48351 79.4172C5.48351 77.9105 4.33437 76.6926 2.91272 76.6926C1.49108 76.6926 0.341934 77.9105 0.341934 79.4172C0.341934 90.3159 8.05431 98.4899 18.3375 98.4899C19.7591 98.4899 20.9083 97.272 20.9083 95.7652C20.9083 94.2585 19.7591 93.0406 18.3375 93.0406ZM62.0409 5.85126C60.6218 5.85126 59.4701 7.07191 59.4701 8.57592C59.4701 10.0799 60.6218 11.3006 62.0409 11.3006C72.3241 11.3006 82.6072 21.0794 82.6072 33.0979C82.6072 34.6019 83.7589 35.8226 85.178 35.8226C86.5971 35.8226 87.7488 34.6019 87.7488 33.0979C87.7488 18.0741 77.4656 5.85126 62.0409 5.85126Z" fill="#5DADEC"/>
<path d="M74.8949 0.516296C73.4758 0.516296 72.3241 1.62251 72.3241 3.12653C72.3241 4.63054 73.4758 5.96563 74.8949 5.96563C82.6073 5.96563 87.6409 12.028 87.6409 19.4745C87.6409 20.9785 88.898 22.1992 90.3196 22.1992C91.7413 22.1992 92.7824 20.9785 92.7824 19.4745C92.7824 9.01998 85.178 0.516296 74.8949 0.516296Z" fill="#5DADEC"/>
</svg>
